<mxfile host="app.diagrams.net" modified="2023-03-29T01:09:55.101Z" agent="Mozilla/5.0 (X11; Linux x86_64) AppleWebKit/537.36 (KHTML, like Gecko) Chrome/111.0.0.0 Safari/537.36" etag="hqpZT-KctCDKOUyCTteU" version="21.1.1" type="device">
  <diagram id="UhnNlIHF2CbctSWJyTVK" name="Page-1">
    <mxGraphModel dx="925" dy="624" grid="0" gridSize="10" guides="1" tooltips="1" connect="1" arrows="1" fold="1" page="1" pageScale="1" pageWidth="850" pageHeight="1100" math="0" shadow="0">
      <root>
        <mxCell id="0" />
        <mxCell id="1" parent="0" />
        <mxCell id="ryVDlxltL2i_eVFPXOiu-8" value="NpmJS.com" style="verticalLabelPosition=middle;html=1;verticalAlign=middle;align=left;strokeColor=none;fillColor=#00BEF2;shape=mxgraph.azure.website_generic;pointerEvents=1;fontSize=19;labelPosition=right;" parent="1" vertex="1">
          <mxGeometry x="583" y="159" width="50" height="42.5" as="geometry" />
        </mxCell>
        <mxCell id="ryVDlxltL2i_eVFPXOiu-10" value="&lt;div&gt;Use &lt;br&gt;&lt;/div&gt;&lt;div&gt;JS Libs&lt;/div&gt;" style="endArrow=classic;html=1;fontSize=16;exitX=0.5;exitY=0.85;exitDx=0;exitDy=0;exitPerimeter=0;entryX=0.547;entryY=0;entryDx=0;entryDy=0;entryPerimeter=0;align=left;" parent="1" source="ryVDlxltL2i_eVFPXOiu-8" target="ryVDlxltL2i_eVFPXOiu-13" edge="1">
          <mxGeometry x="0.2575" y="-16" width="50" height="50" relative="1" as="geometry">
            <mxPoint x="619" y="158" as="sourcePoint" />
            <mxPoint x="69" y="468" as="targetPoint" />
            <Array as="points">
              <mxPoint x="684" y="215" />
              <mxPoint x="728" y="236" />
            </Array>
            <mxPoint as="offset" />
          </mxGeometry>
        </mxCell>
        <mxCell id="ryVDlxltL2i_eVFPXOiu-21" value="" style="endArrow=classic;html=1;fontSize=16;entryX=0;entryY=0.5;entryDx=0;entryDy=0;exitX=1;exitY=0.5;exitDx=0;exitDy=0;" parent="1" source="ryVDlxltL2i_eVFPXOiu-2" target="ryVDlxltL2i_eVFPXOiu-15" edge="1">
          <mxGeometry width="50" height="50" relative="1" as="geometry">
            <mxPoint x="229" y="518" as="sourcePoint" />
            <mxPoint x="279" y="468" as="targetPoint" />
            <Array as="points">
              <mxPoint x="459" y="288" />
              <mxPoint x="539" y="298" />
            </Array>
          </mxGeometry>
        </mxCell>
        <mxCell id="ryVDlxltL2i_eVFPXOiu-23" value="&lt;div&gt;Data to support&lt;/div&gt;&lt;div&gt;Ranking and&lt;/div&gt;&lt;div&gt;Progress Display&lt;br&gt;&lt;/div&gt;" style="edgeLabel;html=1;align=center;verticalAlign=middle;resizable=0;points=[];fontSize=16;" parent="ryVDlxltL2i_eVFPXOiu-21" vertex="1" connectable="0">
          <mxGeometry x="0.0544" y="1" relative="1" as="geometry">
            <mxPoint x="-20" y="-24" as="offset" />
          </mxGeometry>
        </mxCell>
        <mxCell id="ryVDlxltL2i_eVFPXOiu-22" value="&lt;br&gt;&lt;div&gt;Report &lt;br&gt;&lt;/div&gt;&lt;div&gt;skill events&lt;br&gt;&lt;/div&gt;" style="endArrow=classic;html=1;fontSize=16;entryX=1;entryY=0.75;entryDx=0;entryDy=0;exitX=0;exitY=0.5;exitDx=0;exitDy=0;" parent="1" source="ryVDlxltL2i_eVFPXOiu-16" target="ryVDlxltL2i_eVFPXOiu-2" edge="1">
          <mxGeometry x="0.0006" y="11" width="50" height="50" relative="1" as="geometry">
            <mxPoint x="229" y="518" as="sourcePoint" />
            <mxPoint x="279" y="468" as="targetPoint" />
            <Array as="points">
              <mxPoint x="509" y="368" />
            </Array>
            <mxPoint as="offset" />
          </mxGeometry>
        </mxCell>
        <mxCell id="ryVDlxltL2i_eVFPXOiu-38" value="" style="shape=image;imageAspect=0;aspect=fixed;verticalLabelPosition=bottom;verticalAlign=top;fontSize=14;image=https://github.com/NationalSecurityAgency/skills-docs/blob/master/logos/skilltree_logo.png?raw=true;perimeterSpacing=7;" parent="1" vertex="1">
          <mxGeometry x="731.995" y="193" width="87.73" height="47" as="geometry" />
        </mxCell>
        <mxCell id="ryVDlxltL2i_eVFPXOiu-39" value="&lt;div style=&quot;font-size: 13px;&quot;&gt;System&lt;/div&gt;&lt;div style=&quot;font-size: 13px;&quot;&gt;Owners&lt;/div&gt;" style="shadow=0;dashed=0;html=1;strokeColor=none;fillColor=#4495D1;labelPosition=center;verticalLabelPosition=bottom;verticalAlign=top;align=center;outlineConnect=0;shape=mxgraph.veeam.portal_admin;fontSize=13;" parent="1" vertex="1">
          <mxGeometry x="320" y="465" width="44.4" height="48.8" as="geometry" />
        </mxCell>
        <mxCell id="ryVDlxltL2i_eVFPXOiu-40" value="" style="endArrow=classic;html=1;fontSize=18;align=left;entryX=0.5;entryY=1;entryDx=0;entryDy=0;" parent="1" target="ryVDlxltL2i_eVFPXOiu-4" edge="1" source="ryVDlxltL2i_eVFPXOiu-39">
          <mxGeometry width="50" height="50" relative="1" as="geometry">
            <mxPoint x="469" y="248" as="sourcePoint" />
            <mxPoint x="339" y="378" as="targetPoint" />
            <Array as="points">
              <mxPoint x="335" y="425" />
            </Array>
          </mxGeometry>
        </mxCell>
        <mxCell id="ryVDlxltL2i_eVFPXOiu-41" value="&lt;div style=&quot;font-size: 14px;&quot;&gt;Create&lt;/div&gt;&lt;div style=&quot;font-size: 14px;&quot;&gt;gamified&lt;/div&gt;&lt;div style=&quot;font-size: 14px;&quot;&gt;training profile&lt;br style=&quot;font-size: 14px;&quot;&gt;&lt;/div&gt;" style="edgeLabel;html=1;align=center;verticalAlign=middle;resizable=0;points=[];fontSize=14;" parent="ryVDlxltL2i_eVFPXOiu-40" vertex="1" connectable="0">
          <mxGeometry x="-0.0863" y="2" relative="1" as="geometry">
            <mxPoint x="12" as="offset" />
          </mxGeometry>
        </mxCell>
        <mxCell id="hzYMco7wMqU-Gkh5nC0q-1" value="" style="group" vertex="1" connectable="0" parent="1">
          <mxGeometry x="609" y="278" width="237.5" height="190" as="geometry" />
        </mxCell>
        <mxCell id="ryVDlxltL2i_eVFPXOiu-13" value="Custom Web Apps" style="aspect=fixed;html=1;points=[];align=center;image;fontSize=18;image=img/lib/azure2/general/Browser.svg;verticalAlign=top;labelPosition=center;verticalLabelPosition=bottom;" parent="hzYMco7wMqU-Gkh5nC0q-1" vertex="1">
          <mxGeometry width="237.5" height="190" as="geometry" />
        </mxCell>
        <mxCell id="ryVDlxltL2i_eVFPXOiu-14" value="&lt;b&gt;Your App (JS, HTML, CSS)&lt;/b&gt;" style="whiteSpace=wrap;html=1;fontSize=13;verticalAlign=top;" parent="hzYMco7wMqU-Gkh5nC0q-1" vertex="1">
          <mxGeometry x="16.25" y="57" width="205" height="125" as="geometry" />
        </mxCell>
        <mxCell id="ryVDlxltL2i_eVFPXOiu-15" value="Ranking and Progress Display" style="whiteSpace=wrap;html=1;arcSize=13;fillColor=#fff2cc;strokeColor=#d6b656;labelPosition=center;verticalLabelPosition=middle;align=center;verticalAlign=bottom;" parent="hzYMco7wMqU-Gkh5nC0q-1" vertex="1">
          <mxGeometry x="23.75" y="89" width="190" height="34" as="geometry" />
        </mxCell>
        <mxCell id="ryVDlxltL2i_eVFPXOiu-16" value="Skill Reporting JS Utility" style="whiteSpace=wrap;html=1;arcSize=13;fillColor=#fff2cc;strokeColor=#d6b656;verticalAlign=bottom;" parent="hzYMco7wMqU-Gkh5nC0q-1" vertex="1">
          <mxGeometry x="23.75" y="132" width="190" height="38" as="geometry" />
        </mxCell>
        <mxCell id="ryVDlxltL2i_eVFPXOiu-19" value="" style="shape=image;verticalLabelPosition=bottom;labelBackgroundColor=#ffffff;verticalAlign=top;aspect=fixed;imageAspect=0;image=data:image/png,iVBORw0KGgoAAAANSUhEUgAAAL4AAAAtCAYAAAAQhtFwAAAABHNCSVQICAgIfAhkiAAAAAlwSFlzAAAOxAAADsQBlSsOGwAAABl0RVh0U29mdHdhcmUAd3d3Lmlua3NjYXBlLm9yZ5vuPBoAABaBSURBVHic7Z15YFTV1cB/585CCAZc2F0+hJmgxOKCK7hQIROxBSGT8RMtEBRBbEWg+FkraixdXBBZbNlkERcoyQQEK2SCFRARrFSLBjUZcUFZVNBAWLLMO98fM5MMkIQJBESb319z7zvv3PPenHnv3nvOvSPEwbaRfdthMQ+hC0hW60mLxgtoPOc20MDJiBxJYOu9fb0CM4HTYqpfs4esgS2eWbL1+JnWQAPHjxodf/sYTxMtS5yMcHukqliVf4nQM1LeoSqZbScvWn78zWyggfrFVFe5bVTvFC1PXFfp9MrbxqJL28mLU0EHAfuAViL66tZ7b5pUkOVznkCbG2jgmDnoia8gO0b0HaHC40AjQBWd0mZ/qzEyY0Z5VG7ryH7ni7IAtHOkaoNNbf1bTvYXnUDbG2jgqKl0/G33+FpgymcDv4xU7VB0UNtJL+dVd+KnmZkJjZp997ggIyJVe1QZ03by4hnH2eYGGjhmBGD7yH7Xq+rzQFsAEQKi1sBWk5bsiArumTf4OrW4IqQ647TBc7+P1m8d2bevKLOA0yNV2QeEoedOXPw9DTRwkiJb7+07VuBRwIAeEJX/azV58TPR6Up9Pcte8sUXY0EfCsvwhYrc1nTg7DVRJVvv7X2OqO0FhGsiVUFjcUOrKYs/OfGXFB/J3fs3t+xlZwdX+N/9Qe3weM+rsMy+zSuyv6hNztWrVyMJJV6ktn3vBZctKz1R9v1UMQL3EXboD41lrmw9efGUqNN/NyezXckXn68GfYSqgfA5ovr6nuduz9KFPhtA20lLv2i9zfFzhEeBEOCyBO8PcUHxcG6PPq3UWfaRGP7tTkv/Q70qz8oyLo93lDs1fbYrNcNTm6jLk56hsMlmrCJXz/Qra5OVUGIAWEco8bV6tfe/FCNYA1Du1/2hS1tNWfSf6IGSeZkD7EY2AlcBoDpN1Oqp8DlgB32kZP8p+fueG3gmgGRnh9pMXJwllrka4dEKm+PZH+SK4sBhHF2AMwCw5Ib61J289oObBSYgMlhEX+ng6deyJllBUgl3N51GzPU1ybXrnpkAXBs+h24d+/RJqk+b/xuxt560ZAmwJFrxzazbkxrZ+auqDgBAKAa9K2nQ3AUAO1+4rbMz5JwG9Ad+HsL23u65t9/RNHP2EoDWU3LXAetO+JXUAUuwRUf1ItVP6R61brRNzFSZQ2z25sDX1cmqqBENSyvYatJZlrTTOEqrZozL9zWq1eaOqendLJEFoFucYvtlQV72rjpdxH8BB93AvfNuvzTBrhuEsNMLrA9huzhpYNjpAc741Yu7kwbNuVVUBgnsBZqL6Mu7n7t9nk4fmniC7T/pMBYvA9sixRXBU/j4RNugIncBZ4FcVW5p+olu/8eAAVBFSp7LvNdSfRNwAyFBHm9ywHHNqQOf/bS6E0/JnD3PsvRS4D0AQQeUJJS/XTIn82cnzPqTkMIV/s3OZqadRcU5RQG/h+zs0Im2QZGEys+i//UPo+qw75k3oOWeefY5AjdG6rag5lenZM5aHRX6Zs1v2lZYoVkCl4vq71tdN206QNPBcz/SyfdcWXJqyRMo9wApamR9yXOZD5wyaO6kH+KCTgYKsrPLgC0/tB0N1IxB7atinH6RVW4uSopx+h2r7vaErNAGgRuA01Vk2vbVwxdtWXvH6QAyYkpp0sA596pKX2An0FiRiSXPDR504i+ngQbiwwgUA/tQ7k4aNCe92ZBZuwA+fT0zYfvq4ZNVdDnQGtgL8lbkvL6OCue7W1cOj87b0zRz9hIboQuBfwKWBQ0BrAZOWuxNGpd0A5xyc/b+aOXW14eeZ4xtPnBRpKqAkN7SqvvUgh2r7x6B6BPAOcbw+o5Vw8e3bBJ6SC6dUZ44aN5XQA+dPjRRhs3YdzwMdvXydcIK3SaWdEVoRTjwtgvkfRF504G8cjxnMZLTvL9R5dIKuz7y6au5n1cr4/EOUjTVqEz8ON//zvGyJZbzevQ7w7LJUFSaKRo7zuqdnOptGytriVgoK4P5OYFD9bTt3Tsxscw5ThR7yDIPb16RXVx5MCvLuNd+cCNoP5T2CG8WBfxja7MruXv/5uoo9yL6S+BcRFuh8g3CViwN2GzWwo+WL/7saK87uae3vWW4GSRV0DMJZxDsQGSzoK84MP7q/OGwtOQdb9w9UFX/BjQBFGVmuSNh5Nldn676YawZdqmxzEuEB8IA61Fb/9bXPVPtQLg+aNu7d2KTUucUYHB1dsdQrpBrxPpLYV5VXCIWl8fbWyJTuAIbCgP+S+Oxwe3xPkE44IfCzGDAP/Qw3b3Sz5KQfA4YhfeDAX/nQ2UqZdPSZ4rKEABUHi7KzxlXnVzk2vdGyyHLnHqQQ4ZtmwvUpXsZMhj3x4Hsg74zt8c7Aph0qE0db/B1tKzQPJDLY+VVtEswL/ffhypP8fmcpcXWaIEHgVNqsaMC5BmTUPbwx0uW7InX+JQ03+llav0RGEotU8HAbhV95KzSXc+sXLmyIlpZOZ25c909TbevvuslVX2OsNN/i8hNra+bOizW6QHaXj39HZsp7aLwfKTqCiT07vbVd90Sr+F1wuezNSl1vgzcTpXTfy+wAVgHErsgxiHwv6rmX6609EvqywRXWvqfiDh9GF1frWC5tCByXwWpMXhV76jULT1E9Du7UFzNkUqbFW0J0MGT0dWyrHWHOj1QUmGzHbYYydXrtqalxbpM4C9UOf0B0LeApQJrCae2QzgYOtI64HijtmBfLMk9ve3L1FoPDCfi9ALfAasj+jcQziAAaCoqT3/lbL4wxVeVPm8H2Lb6rsvLyypeAukQvim8brfpgOZdp34VFUyZMfEyjHWZzRl6buPA+/a2uHr2HmDgtjeGLxVlBnAqyPxtq4ffKPubDG+dNr7yCXWsuIqtoVC5AOZ7RX4TbCYLYqcKXb36dpCQ7RZgGHA24EBpDxz2NKoryaneR1X5fWWFyBPBPP+sY9VbnxTl54xzpXlzVU2CEetxlB6RQ+MtzIJD5cvtjs1F/3jpuyPp7ejxnWthLQVOjVTtQ3gZi/VGzJLPXs3eHivfpctQR3Fo56sC3SJVJaiOU3vjacFlL+6OynX2DGhyQPYNVmVcRPeFBpPfrnvmFZ+tnHugJnvO7dGnlRp5AzTafduCcn/SrjNyNmyoSp3v4OnX0mDuA0YS/nH1K9utc4FbAezbVw8fCTwZPkgF8HCrq1s9LpJlAfgWLrR9WLzlIRVrLGALldlGdHr2qf6bhvz2XYA210zN/nrVsPdUzHyFLgIDaLz3kq1v/voXbbv9tdo+cF0xcEd0ga/A4KJAzuJDZYLLFn8C/MnVq9d4KhJ9CM5g1865BHKPqW23J2OMog9Hy6I8XhjI+d0xKT1OBPP8BQBuT8Z3MUuit3wSyN5wVAoNompFM28rVGWSpTLu0G5WLLub7/qjaMTpRb/VkHiCK3IPSwTcGHh+L/CMK837uij/JPym6exw7hnHQW/WgxC7zfFCjNP/pyJUnvbpa1VZxFE+CSz6Grgv2eN9U2Eh4Qdh/2RPxpLCQM4CQzgz0w58iuGa1tdO/UvU6S+Y/dTZm3Z/+bqKPEJVP6qjIG+lPPvU/WRlGYCW100v+vaMb7sqTCB8x1NMyLq1tntaB0ThgsjnUkcz82ptwsFly0qD+f4XggH/bLLC13G0JKd6R4M+GS0rmlWY7z8pnf54IEpPhZ8DpQrpwfycMbU5/Xk39G2H6qhIUQXpf6Ts12Cev8ASK3Zscs/5aeltqpN1pWX0oerNvytkmT7VOX0shQH/YlQqx06K/hGfz2YQuQvVPzlLQxe3vnpqZY5NyqynvGqZ/0Ak1VhlHtAn0p9uBPJYytlNX7549uQWACkp2WVtrp36WzCpChOwaf10BbKyhKqxiHPv3sq8/+OKKy19pApPVdXoQ8FA7qMnou2TiI4AAiOCAf/SIwlXqG0M4AAQJbswz78inkY+yVu0HIjKNgqpGVadnKjGPHTkL0dK5Y6yv0TGg0R/IB1cxdaNpvU1f5vf+rppY09PnVEM0G5OVkKnWRMmoZIDehqwR1QHFNw5alDBkNFLy0OhC4HwTVB+WaYVH6Q8O6Eyw7H1tX99rc21U3/butu0ahOz6kz4qR3NdxFnhfWSq5evRb3orgG3xztCVJ6OlkXlwaJA7h+PZ5snLaJrCgP+mfFIitI3WlDRv9apHWV21Uc9LGO2Y2qftsAVkWJpyJJ4bALgy7ey9wPzKw2FXgclqaXMHt+pSajpelGiywnfAS754M7fvhCVKRw25tuCO0bdhMowlP0oLYFXO82aMCllYdZxWXQuMCX6WeHnErKK3J6Mp909+51f320lp2YMASZGm1PRUYX5OX+u73Z+PMhE4thDydXLdz5wZqRYXNS185ra5A/FEit2nUGXs67yNY49HsJxPdEZPWFNbV2uGojV380e/ZQy66mBWDIVSARUhSmStPu+gpuzyg5TIaIFMKPTjAlvGtEFilwgygj2JF2V8uyEWwuGjA7W0ahaKQz4Z7o93i6E52wBmoGOxJiR7lTvJkRybZYs/GhF9vvH0k5ymvdOVZ1O5Q2WJ4N5/om1n/WTpmyvs2xZPIJihc6NCa9sT37r/etJq9taJFX2EfY/u+O0UEvCaz/CGNpX/fxkb3Kat+fhGmrRDS1ifr5n2rtMf6zZfuOcgXJzWCdfK5K56Y5RlRfcwdOvpVEzFeEKFX0gmJf7PMCmoaMLrlo44fLiPTwmyghULgM2XDDzqV/HviXqAS0K+Ie5U70rEcYBHSqPCJ1AO4WMjnWnejeBTG666/TZsVNb8eBOTc9UZRqxwTHVAeenpU/8MC93W81n/qR5d+vSpfFF4C1axNy5jqrkH0vDTkua1ahftY9Cn7ppPOil1dQcMM43RCJOD8vFMp1jnb6jp9/1Btu7COnAmaIyLznNu7Bd976nArx18+j9m+4YfS/hhSnFQFMVeT7l2Qn1NatTSVG+f35R158lq0oa6HSBg+aQETohOm33GTv/3T7V665BzWG40tIHIDKL8CC6LBIMAWhTYclL3bt3t9dy+k8WEeIaPAIoUnFkqXgb1jX2JPPRwbbUm35FmWVHCAGlqjy4acioCYgoQPfu3e1bnc3HWuhDoAeNBVTxOZy2yzp4Mm77JJCzFqBgyOgFnWc+uT4ktheBK1E5vItUH2RlWUEIAAGysu52rdl4uTFyE5Cp4WQ6gAtswqoOnn4XReZza0QhWVTmEHb6UpAMlP2I5gE2hO5fOZs/CYyqTc9PEUvjTzQUsXbEJAIUlDoaXVObfE00tpVUVJe6oOiOmFfxi6WOhHuORn+F2VO6denSffbSffYrGyVWNNl05+hd3DkaCEdBvwqZl0CjIeoPgf8h3P/6N3Ah0M6gK90e74NFAf94QDfeed+nQNfk6eObFw4b8+3RGFYnwj+CdcA6V69eWYQSb5dwMK4J0MaG+R0w+ghaoutXy1T15mC+/xUAt8f7APBE+JCOdKem/6coP3fu8biMkxYl7t0cbEaLQlVRE5fZ69xfWwS2rohQFNPHP/+LOKLOtWGCI0aUFgwZXZm95krN8EnI9k40L0OU5xuTeBmi+yIGzCEcjt5MeM72CZcnY0VkugkIz/wci1FHQ3DZstJgwD9ViCR9AaqkxXl6mUJGMD+3cu1xUcA/XuHvlRIiUzt4fF3qz+KfFpEMy2j3pJG90Z469sFrR01CPhAdt13s6tW3Q23yR6Ly3dSxT58kt8c7XUQXEs6d2I1ya2G+f2AkvFxJUcC/PmSZS0AXAAh6vSWO99xp6b84FmPqA0czySU6khHime8/oBZ9qgnQaKMyMwT4IFJOMFjZKWm+ExJAq0canaiGRFkY8/l+fL7asibrRCTPJ7qrn5iQ7YFj0WcAOnh8XawDjg1UThfq22JxcVG+f/5hZ1hhp9q8Iru4KJDbX0QGEV503gKVpW6Pd5KrV696u9kdPDednezx9m3bu3dca0crvi9tTtXMTK3hbMKCBcEV/mq3SSxYmV0SUtKpWlRzbhnWwvr8Qo8PWpkMplWp48edsvLQ0zETA5ckF+tD8Z7brnvfU90e7yS3J2NcNBXmUIzyKNGNzmCwKzU97rdKhzSfy53mnePypN8BYFye9LsN1loii8wRHXdm2a5uhSv8m+NRWJiXM0+FKxTeJ+xwIySUuDb5et+ZRzo3Hgz2lQqLmpQ6P0r2ZNxS002JomJ/sLIgHPPmS5vz/UUgA4BwD1bpkVxsnexR3MrvzkDv83r0O+NENPrZysXfWzAmWlb0EbcnY9yRHhTJab7LHU7bv4ARoGM7rP2g2s21Ps73vyPo1EjRiMgClyfjtiPZ5UrN8Bm1/oWSKciMs67yNbYLMh5wAl+qml8FA9mratvy2BI9LIoXzPMXnHWV74rEpNB4Re4GLrHs1gDgsSMZFQfREf7Zis53r33/T3jS56ixvZZoJWzcGHh+b8c+fZKsA/aLQe7Tqk1v90mIyfXQPkWBnFeSPRnjNLyjHAr3u9K87wbz/AuPdO4PgTEstSzGEU7wax2ymXfcad7HjaXvq9pEJeQSY9tUmJf9dn23HQz4Z7s9GReBRmZddKy7WPtJasZEy24tDy7L/RLCK7NwlF6jIrepWulUvaU3JpTJxpr0J+1sPnL36Ts7IXQHGgv6gjvNOxiRvzlVVhbkZe8iK8u41m9sK5ZJVdU7BI2mSCOC/8u3svcbURmBMMkWsi4K5mevOtoL/vKt7P2FgdxfR5aYzTAV5vkjnhQHFaHyNEXnURWBaA8yTixr7X72lbg93v3WAcdukFVUOX2FCoPjfWvFQ2HXC/4AvBIpilGmRXY4qx/Eqre/Vvp4uX+jKLEBxHYoUy2RNWqsNxCZo2qtOucXt55Wo5JjoCiQc6+oPEj0LQkpKjpTQrLF7fGWuj3eA+os+0ZFcgEvEacXeNkklF9dsDK7pCbdGzbMKC8vT+oF+mJlpdIDS/1lau10e7x73WvfL5WQbEF1dsy6ABXl8cKrfnYLgL0wP6dOW/2JSK2pvkV5uf8A/lEXnbURSTsd5OrpnWgMv9ZwoCy2v3+w8wnvGkvv+TiQ+2ZNOm3GFFqWFQJsin5Uk9xBZGVZ5d37DnA4beuAjjXtfNbIZj4vU2sv0ETQTbXqVKk6LvJhTWJbly7d5/Z4PwPaAV9uXpG9uybZKGXlSUMdzj0WMJDql2p+3n7v1j2HRahENxHZ3U0MBUdqpwa0MD/nz8lpvhWo9VgktTnKYflcKhSKyAOFy3PiWjwRmSb9VbLHm6PwZyA2Z6u6seBqEXNfYSD7bfL9QBz/gRXFnZb+DSrNEYYX5fmnxXtefdOue2aCPaHkSrG0myqtIzM3uwWKRMyqeF/fbk/6tcCFIcs2ry4JT+f26NPKYXf41DJrivKz36tOxtXTe7EYvdpC/15rAM3ns7l2h24VMXuLlucsopZksMhKqN6WmFc/ycuOOxfK3bPf+WKTG1VxI9JIlO3A+pJGZYEa0hHElZqREV7Ic8H8Y13TANA+1es2Rn8hyIWRpEYQvkYJquiy6tbs1gHpmOrtEjLcaCxcKrRC5ACq21E2ibK0ujd/3R1f5a6i/Jzpx2BoAw384NR5w1SpZnDbQAM/Nuq+U7A0/L9tAz9+6nWL7AYa+LFQd8e3pOGJ38CPnvgdX8MOb9XjfHMDDfxQxO34Ai8AH1kqq48o3EADJzn/D0nc9RrobD3jAAAAAElFTkSuQmCC;" parent="hzYMco7wMqU-Gkh5nC0q-1" vertex="1">
          <mxGeometry x="91.19" y="136" width="59.11" height="14" as="geometry" />
        </mxCell>
        <mxCell id="ryVDlxltL2i_eVFPXOiu-20" value="" style="shape=image;verticalLabelPosition=bottom;labelBackgroundColor=#ffffff;verticalAlign=top;aspect=fixed;imageAspect=0;image=data:image/png,iVBORw0KGgoAAAANSUhEUgAAAL4AAAAtCAYAAAAQhtFwAAAABHNCSVQICAgIfAhkiAAAAAlwSFlzAAAOxAAADsQBlSsOGwAAABl0RVh0U29mdHdhcmUAd3d3Lmlua3NjYXBlLm9yZ5vuPBoAABaBSURBVHic7Z15YFTV1cB/585CCAZc2F0+hJmgxOKCK7hQIROxBSGT8RMtEBRBbEWg+FkraixdXBBZbNlkERcoyQQEK2SCFRARrFSLBjUZcUFZVNBAWLLMO98fM5MMkIQJBESb319z7zvv3PPenHnv3nvOvSPEwbaRfdthMQ+hC0hW60mLxgtoPOc20MDJiBxJYOu9fb0CM4HTYqpfs4esgS2eWbL1+JnWQAPHjxodf/sYTxMtS5yMcHukqliVf4nQM1LeoSqZbScvWn78zWyggfrFVFe5bVTvFC1PXFfp9MrbxqJL28mLU0EHAfuAViL66tZ7b5pUkOVznkCbG2jgmDnoia8gO0b0HaHC40AjQBWd0mZ/qzEyY0Z5VG7ryH7ni7IAtHOkaoNNbf1bTvYXnUDbG2jgqKl0/G33+FpgymcDv4xU7VB0UNtJL+dVd+KnmZkJjZp997ggIyJVe1QZ03by4hnH2eYGGjhmBGD7yH7Xq+rzQFsAEQKi1sBWk5bsiArumTf4OrW4IqQ647TBc7+P1m8d2bevKLOA0yNV2QeEoedOXPw9DTRwkiJb7+07VuBRwIAeEJX/azV58TPR6Up9Pcte8sUXY0EfCsvwhYrc1nTg7DVRJVvv7X2OqO0FhGsiVUFjcUOrKYs/OfGXFB/J3fs3t+xlZwdX+N/9Qe3weM+rsMy+zSuyv6hNztWrVyMJJV6ktn3vBZctKz1R9v1UMQL3EXboD41lrmw9efGUqNN/NyezXckXn68GfYSqgfA5ovr6nuduz9KFPhtA20lLv2i9zfFzhEeBEOCyBO8PcUHxcG6PPq3UWfaRGP7tTkv/Q70qz8oyLo93lDs1fbYrNcNTm6jLk56hsMlmrCJXz/Qra5OVUGIAWEco8bV6tfe/FCNYA1Du1/2hS1tNWfSf6IGSeZkD7EY2AlcBoDpN1Oqp8DlgB32kZP8p+fueG3gmgGRnh9pMXJwllrka4dEKm+PZH+SK4sBhHF2AMwCw5Ib61J289oObBSYgMlhEX+ng6deyJllBUgl3N51GzPU1ybXrnpkAXBs+h24d+/RJqk+b/xuxt560ZAmwJFrxzazbkxrZ+auqDgBAKAa9K2nQ3AUAO1+4rbMz5JwG9Ad+HsL23u65t9/RNHP2EoDWU3LXAetO+JXUAUuwRUf1ItVP6R61brRNzFSZQ2z25sDX1cmqqBENSyvYatJZlrTTOEqrZozL9zWq1eaOqendLJEFoFucYvtlQV72rjpdxH8BB93AvfNuvzTBrhuEsNMLrA9huzhpYNjpAc741Yu7kwbNuVVUBgnsBZqL6Mu7n7t9nk4fmniC7T/pMBYvA9sixRXBU/j4RNugIncBZ4FcVW5p+olu/8eAAVBFSp7LvNdSfRNwAyFBHm9ywHHNqQOf/bS6E0/JnD3PsvRS4D0AQQeUJJS/XTIn82cnzPqTkMIV/s3OZqadRcU5RQG/h+zs0Im2QZGEys+i//UPo+qw75k3oOWeefY5AjdG6rag5lenZM5aHRX6Zs1v2lZYoVkCl4vq71tdN206QNPBcz/SyfdcWXJqyRMo9wApamR9yXOZD5wyaO6kH+KCTgYKsrPLgC0/tB0N1IxB7atinH6RVW4uSopx+h2r7vaErNAGgRuA01Vk2vbVwxdtWXvH6QAyYkpp0sA596pKX2An0FiRiSXPDR504i+ngQbiwwgUA/tQ7k4aNCe92ZBZuwA+fT0zYfvq4ZNVdDnQGtgL8lbkvL6OCue7W1cOj87b0zRz9hIboQuBfwKWBQ0BrAZOWuxNGpd0A5xyc/b+aOXW14eeZ4xtPnBRpKqAkN7SqvvUgh2r7x6B6BPAOcbw+o5Vw8e3bBJ6SC6dUZ44aN5XQA+dPjRRhs3YdzwMdvXydcIK3SaWdEVoRTjwtgvkfRF504G8cjxnMZLTvL9R5dIKuz7y6au5n1cr4/EOUjTVqEz8ON//zvGyJZbzevQ7w7LJUFSaKRo7zuqdnOptGytriVgoK4P5OYFD9bTt3Tsxscw5ThR7yDIPb16RXVx5MCvLuNd+cCNoP5T2CG8WBfxja7MruXv/5uoo9yL6S+BcRFuh8g3CViwN2GzWwo+WL/7saK87uae3vWW4GSRV0DMJZxDsQGSzoK84MP7q/OGwtOQdb9w9UFX/BjQBFGVmuSNh5Nldn676YawZdqmxzEuEB8IA61Fb/9bXPVPtQLg+aNu7d2KTUucUYHB1dsdQrpBrxPpLYV5VXCIWl8fbWyJTuAIbCgP+S+Oxwe3xPkE44IfCzGDAP/Qw3b3Sz5KQfA4YhfeDAX/nQ2UqZdPSZ4rKEABUHi7KzxlXnVzk2vdGyyHLnHqQQ4ZtmwvUpXsZMhj3x4Hsg74zt8c7Aph0qE0db/B1tKzQPJDLY+VVtEswL/ffhypP8fmcpcXWaIEHgVNqsaMC5BmTUPbwx0uW7InX+JQ03+llav0RGEotU8HAbhV95KzSXc+sXLmyIlpZOZ25c909TbevvuslVX2OsNN/i8hNra+bOizW6QHaXj39HZsp7aLwfKTqCiT07vbVd90Sr+F1wuezNSl1vgzcTpXTfy+wAVgHErsgxiHwv6rmX6609EvqywRXWvqfiDh9GF1frWC5tCByXwWpMXhV76jULT1E9Du7UFzNkUqbFW0J0MGT0dWyrHWHOj1QUmGzHbYYydXrtqalxbpM4C9UOf0B0LeApQJrCae2QzgYOtI64HijtmBfLMk9ve3L1FoPDCfi9ALfAasj+jcQziAAaCoqT3/lbL4wxVeVPm8H2Lb6rsvLyypeAukQvim8brfpgOZdp34VFUyZMfEyjHWZzRl6buPA+/a2uHr2HmDgtjeGLxVlBnAqyPxtq4ffKPubDG+dNr7yCXWsuIqtoVC5AOZ7RX4TbCYLYqcKXb36dpCQ7RZgGHA24EBpDxz2NKoryaneR1X5fWWFyBPBPP+sY9VbnxTl54xzpXlzVU2CEetxlB6RQ+MtzIJD5cvtjs1F/3jpuyPp7ejxnWthLQVOjVTtQ3gZi/VGzJLPXs3eHivfpctQR3Fo56sC3SJVJaiOU3vjacFlL+6OynX2DGhyQPYNVmVcRPeFBpPfrnvmFZ+tnHugJnvO7dGnlRp5AzTafduCcn/SrjNyNmyoSp3v4OnX0mDuA0YS/nH1K9utc4FbAezbVw8fCTwZPkgF8HCrq1s9LpJlAfgWLrR9WLzlIRVrLGALldlGdHr2qf6bhvz2XYA210zN/nrVsPdUzHyFLgIDaLz3kq1v/voXbbv9tdo+cF0xcEd0ga/A4KJAzuJDZYLLFn8C/MnVq9d4KhJ9CM5g1865BHKPqW23J2OMog9Hy6I8XhjI+d0xKT1OBPP8BQBuT8Z3MUuit3wSyN5wVAoNompFM28rVGWSpTLu0G5WLLub7/qjaMTpRb/VkHiCK3IPSwTcGHh+L/CMK837uij/JPym6exw7hnHQW/WgxC7zfFCjNP/pyJUnvbpa1VZxFE+CSz6Grgv2eN9U2Eh4Qdh/2RPxpLCQM4CQzgz0w58iuGa1tdO/UvU6S+Y/dTZm3Z/+bqKPEJVP6qjIG+lPPvU/WRlGYCW100v+vaMb7sqTCB8x1NMyLq1tntaB0ThgsjnUkcz82ptwsFly0qD+f4XggH/bLLC13G0JKd6R4M+GS0rmlWY7z8pnf54IEpPhZ8DpQrpwfycMbU5/Xk39G2H6qhIUQXpf6Ts12Cev8ASK3Zscs/5aeltqpN1pWX0oerNvytkmT7VOX0shQH/YlQqx06K/hGfz2YQuQvVPzlLQxe3vnpqZY5NyqynvGqZ/0Ak1VhlHtAn0p9uBPJYytlNX7549uQWACkp2WVtrp36WzCpChOwaf10BbKyhKqxiHPv3sq8/+OKKy19pApPVdXoQ8FA7qMnou2TiI4AAiOCAf/SIwlXqG0M4AAQJbswz78inkY+yVu0HIjKNgqpGVadnKjGPHTkL0dK5Y6yv0TGg0R/IB1cxdaNpvU1f5vf+rppY09PnVEM0G5OVkKnWRMmoZIDehqwR1QHFNw5alDBkNFLy0OhC4HwTVB+WaYVH6Q8O6Eyw7H1tX99rc21U3/butu0ahOz6kz4qR3NdxFnhfWSq5evRb3orgG3xztCVJ6OlkXlwaJA7h+PZ5snLaJrCgP+mfFIitI3WlDRv9apHWV21Uc9LGO2Y2qftsAVkWJpyJJ4bALgy7ey9wPzKw2FXgclqaXMHt+pSajpelGiywnfAS754M7fvhCVKRw25tuCO0bdhMowlP0oLYFXO82aMCllYdZxWXQuMCX6WeHnErKK3J6Mp909+51f320lp2YMASZGm1PRUYX5OX+u73Z+PMhE4thDydXLdz5wZqRYXNS185ra5A/FEit2nUGXs67yNY49HsJxPdEZPWFNbV2uGojV380e/ZQy66mBWDIVSARUhSmStPu+gpuzyg5TIaIFMKPTjAlvGtEFilwgygj2JF2V8uyEWwuGjA7W0ahaKQz4Z7o93i6E52wBmoGOxJiR7lTvJkRybZYs/GhF9vvH0k5ymvdOVZ1O5Q2WJ4N5/om1n/WTpmyvs2xZPIJihc6NCa9sT37r/etJq9taJFX2EfY/u+O0UEvCaz/CGNpX/fxkb3Kat+fhGmrRDS1ifr5n2rtMf6zZfuOcgXJzWCdfK5K56Y5RlRfcwdOvpVEzFeEKFX0gmJf7PMCmoaMLrlo44fLiPTwmyghULgM2XDDzqV/HviXqAS0K+Ie5U70rEcYBHSqPCJ1AO4WMjnWnejeBTG666/TZsVNb8eBOTc9UZRqxwTHVAeenpU/8MC93W81n/qR5d+vSpfFF4C1axNy5jqrkH0vDTkua1ahftY9Cn7ppPOil1dQcMM43RCJOD8vFMp1jnb6jp9/1Btu7COnAmaIyLznNu7Bd976nArx18+j9m+4YfS/hhSnFQFMVeT7l2Qn1NatTSVG+f35R158lq0oa6HSBg+aQETohOm33GTv/3T7V665BzWG40tIHIDKL8CC6LBIMAWhTYclL3bt3t9dy+k8WEeIaPAIoUnFkqXgb1jX2JPPRwbbUm35FmWVHCAGlqjy4acioCYgoQPfu3e1bnc3HWuhDoAeNBVTxOZy2yzp4Mm77JJCzFqBgyOgFnWc+uT4ktheBK1E5vItUH2RlWUEIAAGysu52rdl4uTFyE5Cp4WQ6gAtswqoOnn4XReZza0QhWVTmEHb6UpAMlP2I5gE2hO5fOZs/CYyqTc9PEUvjTzQUsXbEJAIUlDoaXVObfE00tpVUVJe6oOiOmFfxi6WOhHuORn+F2VO6denSffbSffYrGyVWNNl05+hd3DkaCEdBvwqZl0CjIeoPgf8h3P/6N3Ah0M6gK90e74NFAf94QDfeed+nQNfk6eObFw4b8+3RGFYnwj+CdcA6V69eWYQSb5dwMK4J0MaG+R0w+ghaoutXy1T15mC+/xUAt8f7APBE+JCOdKem/6coP3fu8biMkxYl7t0cbEaLQlVRE5fZ69xfWwS2rohQFNPHP/+LOKLOtWGCI0aUFgwZXZm95krN8EnI9k40L0OU5xuTeBmi+yIGzCEcjt5MeM72CZcnY0VkugkIz/wci1FHQ3DZstJgwD9ViCR9AaqkxXl6mUJGMD+3cu1xUcA/XuHvlRIiUzt4fF3qz+KfFpEMy2j3pJG90Z469sFrR01CPhAdt13s6tW3Q23yR6Ly3dSxT58kt8c7XUQXEs6d2I1ya2G+f2AkvFxJUcC/PmSZS0AXAAh6vSWO99xp6b84FmPqA0czySU6khHime8/oBZ9qgnQaKMyMwT4IFJOMFjZKWm+ExJAq0canaiGRFkY8/l+fL7asibrRCTPJ7qrn5iQ7YFj0WcAOnh8XawDjg1UThfq22JxcVG+f/5hZ1hhp9q8Iru4KJDbX0QGEV503gKVpW6Pd5KrV696u9kdPDednezx9m3bu3dca0crvi9tTtXMTK3hbMKCBcEV/mq3SSxYmV0SUtKpWlRzbhnWwvr8Qo8PWpkMplWp48edsvLQ0zETA5ckF+tD8Z7brnvfU90e7yS3J2NcNBXmUIzyKNGNzmCwKzU97rdKhzSfy53mnePypN8BYFye9LsN1loii8wRHXdm2a5uhSv8m+NRWJiXM0+FKxTeJ+xwIySUuDb5et+ZRzo3Hgz2lQqLmpQ6P0r2ZNxS002JomJ/sLIgHPPmS5vz/UUgA4BwD1bpkVxsnexR3MrvzkDv83r0O+NENPrZysXfWzAmWlb0EbcnY9yRHhTJab7LHU7bv4ARoGM7rP2g2s21Ps73vyPo1EjRiMgClyfjtiPZ5UrN8Bm1/oWSKciMs67yNbYLMh5wAl+qml8FA9mratvy2BI9LIoXzPMXnHWV74rEpNB4Re4GLrHs1gDgsSMZFQfREf7Zis53r33/T3jS56ixvZZoJWzcGHh+b8c+fZKsA/aLQe7Tqk1v90mIyfXQPkWBnFeSPRnjNLyjHAr3u9K87wbz/AuPdO4PgTEstSzGEU7wax2ymXfcad7HjaXvq9pEJeQSY9tUmJf9dn23HQz4Z7s9GReBRmZddKy7WPtJasZEy24tDy7L/RLCK7NwlF6jIrepWulUvaU3JpTJxpr0J+1sPnL36Ts7IXQHGgv6gjvNOxiRvzlVVhbkZe8iK8u41m9sK5ZJVdU7BI2mSCOC/8u3svcbURmBMMkWsi4K5mevOtoL/vKt7P2FgdxfR5aYzTAV5vkjnhQHFaHyNEXnURWBaA8yTixr7X72lbg93v3WAcdukFVUOX2FCoPjfWvFQ2HXC/4AvBIpilGmRXY4qx/Eqre/Vvp4uX+jKLEBxHYoUy2RNWqsNxCZo2qtOucXt55Wo5JjoCiQc6+oPEj0LQkpKjpTQrLF7fGWuj3eA+os+0ZFcgEvEacXeNkklF9dsDK7pCbdGzbMKC8vT+oF+mJlpdIDS/1lau10e7x73WvfL5WQbEF1dsy6ABXl8cKrfnYLgL0wP6dOW/2JSK2pvkV5uf8A/lEXnbURSTsd5OrpnWgMv9ZwoCy2v3+w8wnvGkvv+TiQ+2ZNOm3GFFqWFQJsin5Uk9xBZGVZ5d37DnA4beuAjjXtfNbIZj4vU2sv0ETQTbXqVKk6LvJhTWJbly7d5/Z4PwPaAV9uXpG9uybZKGXlSUMdzj0WMJDql2p+3n7v1j2HRahENxHZ3U0MBUdqpwa0MD/nz8lpvhWo9VgktTnKYflcKhSKyAOFy3PiWjwRmSb9VbLHm6PwZyA2Z6u6seBqEXNfYSD7bfL9QBz/gRXFnZb+DSrNEYYX5fmnxXtefdOue2aCPaHkSrG0myqtIzM3uwWKRMyqeF/fbk/6tcCFIcs2ry4JT+f26NPKYXf41DJrivKz36tOxtXTe7EYvdpC/15rAM3ns7l2h24VMXuLlucsopZksMhKqN6WmFc/ycuOOxfK3bPf+WKTG1VxI9JIlO3A+pJGZYEa0hHElZqREV7Ic8H8Y13TANA+1es2Rn8hyIWRpEYQvkYJquiy6tbs1gHpmOrtEjLcaCxcKrRC5ACq21E2ibK0ujd/3R1f5a6i/Jzpx2BoAw384NR5w1SpZnDbQAM/Nuq+U7A0/L9tAz9+6nWL7AYa+LFQd8e3pOGJ38CPnvgdX8MOb9XjfHMDDfxQxO34Ai8AH1kqq48o3EADJzn/D0nc9RrobD3jAAAAAElFTkSuQmCC;" parent="hzYMco7wMqU-Gkh5nC0q-1" vertex="1">
          <mxGeometry x="89.19" y="91" width="59.11" height="14" as="geometry" />
        </mxCell>
        <mxCell id="ryVDlxltL2i_eVFPXOiu-2" value="" style="rounded=1;whiteSpace=wrap;html=1;fontSize=14;" parent="1" vertex="1">
          <mxGeometry x="269" y="248" width="160" height="120" as="geometry" />
        </mxCell>
        <mxCell id="ryVDlxltL2i_eVFPXOiu-3" value="" style="shape=image;imageAspect=0;aspect=fixed;verticalLabelPosition=bottom;verticalAlign=top;fontSize=14;image=https://github.com/NationalSecurityAgency/skills-docs/blob/master/logos/skilltree_logo.png?raw=true;perimeterSpacing=7;" parent="1" vertex="1">
          <mxGeometry x="290.14" y="254" width="113.86" height="61" as="geometry" />
        </mxCell>
        <mxCell id="ryVDlxltL2i_eVFPXOiu-4" value="&lt;div&gt;web-based&lt;/div&gt;&lt;div&gt;&lt;b&gt;Dashboard&lt;/b&gt;&lt;/div&gt;" style="text;html=1;strokeColor=none;fillColor=none;align=center;verticalAlign=middle;whiteSpace=wrap;rounded=0;fontSize=19;" parent="1" vertex="1">
          <mxGeometry x="269" y="307" width="160" height="60" as="geometry" />
        </mxCell>
        <mxCell id="ryVDlxltL2i_eVFPXOiu-25" value="&lt;div style=&quot;font-size: 13px;&quot;&gt;self hosted &lt;i style=&quot;font-size: 13px;&quot;&gt;OR&lt;/i&gt;&lt;/div&gt;&lt;div style=&quot;font-size: 13px;&quot;&gt;provided by your org &lt;i style=&quot;font-size: 13px;&quot;&gt;OR&lt;/i&gt;&lt;/div&gt;&lt;div style=&quot;font-size: 13px;&quot;&gt;public offering&lt;br style=&quot;font-size: 13px;&quot;&gt;&lt;/div&gt;" style="ellipse;shape=cloud;whiteSpace=wrap;html=1;fontSize=13;" parent="1" vertex="1">
          <mxGeometry x="229" y="159" width="233" height="97" as="geometry" />
        </mxCell>
        <mxCell id="hzYMco7wMqU-Gkh5nC0q-3" value="&lt;div style=&quot;font-size: 13px;&quot;&gt;Developers&lt;/div&gt;" style="shadow=0;dashed=0;html=1;strokeColor=none;fillColor=#4495D1;labelPosition=center;verticalLabelPosition=bottom;verticalAlign=top;align=center;outlineConnect=0;shape=mxgraph.veeam.portal_admin;fontSize=13;" vertex="1" parent="1">
          <mxGeometry x="400" y="464.99999999999994" width="44.4" height="48.8" as="geometry" />
        </mxCell>
        <mxCell id="hzYMco7wMqU-Gkh5nC0q-5" value="&lt;div style=&quot;font-size: 13px;&quot;&gt;Trainers&lt;/div&gt;" style="shadow=0;dashed=0;html=1;strokeColor=none;fillColor=#4495D1;labelPosition=center;verticalLabelPosition=bottom;verticalAlign=top;align=center;outlineConnect=0;shape=mxgraph.veeam.portal_admin;fontSize=13;" vertex="1" parent="1">
          <mxGeometry x="246" y="467.99999999999994" width="44.4" height="48.8" as="geometry" />
        </mxCell>
        <mxCell id="hzYMco7wMqU-Gkh5nC0q-7" value="" style="endArrow=classic;html=1;rounded=0;" edge="1" parent="1">
          <mxGeometry width="50" height="50" relative="1" as="geometry">
            <mxPoint x="270" y="468" as="sourcePoint" />
            <mxPoint x="310" y="413" as="targetPoint" />
            <Array as="points">
              <mxPoint x="270" y="432" />
            </Array>
          </mxGeometry>
        </mxCell>
        <mxCell id="hzYMco7wMqU-Gkh5nC0q-8" value="" style="endArrow=classic;html=1;rounded=0;" edge="1" parent="1">
          <mxGeometry width="50" height="50" relative="1" as="geometry">
            <mxPoint x="413" y="460" as="sourcePoint" />
            <mxPoint x="384" y="411" as="targetPoint" />
            <Array as="points">
              <mxPoint x="424" y="435" />
            </Array>
          </mxGeometry>
        </mxCell>
        <mxCell id="hzYMco7wMqU-Gkh5nC0q-9" value="" style="outlineConnect=0;dashed=0;verticalLabelPosition=bottom;verticalAlign=top;align=center;html=1;shape=mxgraph.aws3.users;fillColor=#D2D3D3;gradientColor=none;" vertex="1" parent="1">
          <mxGeometry x="10" y="245" width="93" height="80" as="geometry" />
        </mxCell>
        <mxCell id="hzYMco7wMqU-Gkh5nC0q-11" value="Taking training&lt;br style=&quot;font-size: 15px;&quot;&gt;via Self-Reporting and&lt;br style=&quot;font-size: 15px;&quot;&gt;Knowledge Checks" style="endArrow=classic;html=1;rounded=0;exitX=1;exitY=0.5;exitDx=0;exitDy=0;exitPerimeter=0;entryX=0;entryY=0;entryDx=0;entryDy=0;fontSize=15;" edge="1" parent="1">
          <mxGeometry x="-0.1017" y="-20" width="50" height="50" relative="1" as="geometry">
            <mxPoint x="103" y="287" as="sourcePoint" />
            <mxPoint x="269" y="309.0000000000001" as="targetPoint" />
            <Array as="points">
              <mxPoint x="193" y="366" />
            </Array>
            <mxPoint y="1" as="offset" />
          </mxGeometry>
        </mxCell>
        <mxCell id="hzYMco7wMqU-Gkh5nC0q-12" value="Trainees" style="text;html=1;strokeColor=none;fillColor=none;align=center;verticalAlign=middle;whiteSpace=wrap;rounded=0;fontSize=13;" vertex="1" parent="1">
          <mxGeometry x="25" y="210" width="60" height="30" as="geometry" />
        </mxCell>
        <mxCell id="hzYMco7wMqU-Gkh5nC0q-13" value="" style="shape=curlyBracket;whiteSpace=wrap;html=1;rounded=1;flipH=1;labelPosition=right;verticalLabelPosition=middle;align=left;verticalAlign=middle;rotation=-90;fontColor=#595959;" vertex="1" parent="1">
          <mxGeometry x="147.5" y="-20.5" width="20" height="291" as="geometry" />
        </mxCell>
        <mxCell id="hzYMco7wMqU-Gkh5nC0q-14" value="" style="shape=curlyBracket;whiteSpace=wrap;html=1;rounded=1;flipH=1;labelPosition=right;verticalLabelPosition=middle;align=left;verticalAlign=middle;rotation=-90;fontColor=#595959;" vertex="1" parent="1">
          <mxGeometry x="624.5" y="-89.5" width="20" height="423" as="geometry" />
        </mxCell>
        <mxCell id="hzYMco7wMqU-Gkh5nC0q-15" value="&lt;span style=&quot;color: rgb(44, 62, 80); font-family: -apple-system, BlinkMacSystemFont, &amp;quot;Segoe UI&amp;quot;, Roboto, Oxygen, Ubuntu, Cantarell, &amp;quot;Fira Sans&amp;quot;, &amp;quot;Droid Sans&amp;quot;, &amp;quot;Helvetica Neue&amp;quot;, sans-serif; font-size: 16px; font-style: normal; font-variant-ligatures: normal; font-variant-caps: normal; font-weight: 400; letter-spacing: normal; orphans: 2; text-align: left; text-indent: 0px; text-transform: none; widows: 2; word-spacing: 0px; -webkit-text-stroke-width: 0px; background-color: rgb(255, 255, 255); text-decoration-thickness: initial; text-decoration-style: initial; text-decoration-color: initial; float: none; display: inline !important;&quot;&gt;Learning Management System (LMS)&lt;/span&gt;" style="text;whiteSpace=wrap;html=1;" vertex="1" parent="1">
          <mxGeometry x="20.139999999999986" y="82" width="285" height="41" as="geometry" />
        </mxCell>
        <mxCell id="hzYMco7wMqU-Gkh5nC0q-16" value="&lt;span style=&quot;color: rgb(44, 62, 80); font-family: -apple-system, BlinkMacSystemFont, &amp;quot;Segoe UI&amp;quot;, Roboto, Oxygen, Ubuntu, Cantarell, &amp;quot;Fira Sans&amp;quot;, &amp;quot;Droid Sans&amp;quot;, &amp;quot;Helvetica Neue&amp;quot;, sans-serif; font-size: 16px; font-style: normal; font-variant-ligatures: normal; font-variant-caps: normal; font-weight: 400; letter-spacing: normal; orphans: 2; text-align: left; text-indent: 0px; text-transform: none; widows: 2; word-spacing: 0px; -webkit-text-stroke-width: 0px; background-color: rgb(255, 255, 255); text-decoration-thickness: initial; text-decoration-style: initial; text-decoration-color: initial; float: none; display: inline !important;&quot;&gt;Directly embedding SkillTree&#39;s Skills Display&lt;/span&gt;" style="text;whiteSpace=wrap;html=1;" vertex="1" parent="1">
          <mxGeometry x="472" y="82" width="331" height="41" as="geometry" />
        </mxCell>
      </root>
    </mxGraphModel>
  </diagram>
</mxfile>
